M48
INCH
T01C0.0315
T02C0.0354
T03C0.0394
T04C0.126
%
T01
X+008937Y+005812
X+007969Y+005812
X+009937Y+005812
X+013312Y+005812
X+013313Y+004843
X+013313Y+006811
X+013312Y+008062
X+014437Y+008062
X+013312Y+011687
X+013312Y+013812
X+014437Y+013812
X+013312Y+017750
X+013312Y+019312
X+010062Y+018562
X+009062Y+018562
X+009062Y+012562
X+010062Y+012562
X+020501Y+014625
X+021562Y+017625
X+021562Y+011000
X+020438Y+009874
X+020625Y+004812
T02
X+005437Y+012687
X+005437Y+013687
X+005437Y+014687
X+005437Y+015687
X+005437Y+016687
X+005437Y+010687
X+005437Y+009687
X+005437Y+008687
X+005437Y+007687
T03
X+023939Y+008186
X+023939Y+010186
X+023939Y+014500
X+023939Y+016500
T04
X+005437Y+018937
X+005437Y+005437
X+023937Y+005437
X+023937Y+018937
T00
M30
