G04 DipTrace 4.1.0.1*
G04 1 - Верхний.gbr*
%MOMM*%
G04 #@! TF.FileFunction,Copper,L1,Top*
G04 #@! TF.Part,Single*
%AMOUTLINE0*
4,1,28,
0.91,0.50068,
0.91,-0.50068,
0.89708,-0.59886,
0.85918,-0.69034,
0.7989,-0.7689,
0.72034,-0.82918,
0.62886,-0.86708,
0.53068,-0.88,
-0.53068,-0.88,
-0.62886,-0.86708,
-0.72034,-0.82918,
-0.7989,-0.7689,
-0.85918,-0.69034,
-0.89708,-0.59886,
-0.91,-0.50068,
-0.91,0.50068,
-0.89708,0.59886,
-0.85918,0.69034,
-0.7989,0.7689,
-0.72034,0.82918,
-0.62886,0.86708,
-0.53068,0.88,
0.53068,0.88,
0.62886,0.86708,
0.72034,0.82918,
0.7989,0.7689,
0.85918,0.69034,
0.89708,0.59886,
0.91,0.50068,
0*%
%AMOUTLINE1*
4,1,28,
-0.91,-0.50068,
-0.91,0.50068,
-0.89708,0.59886,
-0.85918,0.69034,
-0.7989,0.7689,
-0.72034,0.82918,
-0.62886,0.86708,
-0.53068,0.88,
0.53068,0.88,
0.62886,0.86708,
0.72034,0.82918,
0.7989,0.7689,
0.85918,0.69034,
0.89708,0.59886,
0.91,0.50068,
0.91,-0.50068,
0.89708,-0.59886,
0.85918,-0.69034,
0.7989,-0.7689,
0.72034,-0.82918,
0.62886,-0.86708,
0.53068,-0.88,
-0.53068,-0.88,
-0.62886,-0.86708,
-0.72034,-0.82918,
-0.7989,-0.7689,
-0.85918,-0.69034,
-0.89708,-0.59886,
-0.91,-0.50068,
0*%
%AMOUTLINE12*
4,1,28,
-1.38005,1.19994,
1.37995,1.20006,
1.41101,1.19597,
1.43995,1.18399,
1.4648,1.16492,
1.48387,1.14007,
1.49586,1.11112,
1.49995,1.08007,
1.50005,-1.07993,
1.49596,-1.11099,
1.48397,-1.13993,
1.4649,-1.16479,
1.44005,-1.18386,
1.41111,-1.19585,
1.38005,-1.19994,
-1.37995,-1.20006,
-1.41101,-1.19597,
-1.43995,-1.18399,
-1.4648,-1.16492,
-1.48387,-1.14007,
-1.49586,-1.11112,
-1.49995,-1.08007,
-1.50005,1.07993,
-1.49596,1.11099,
-1.48397,1.13993,
-1.4649,1.16479,
-1.44005,1.18386,
-1.41111,1.19585,
-1.38005,1.19994,
0*%
%AMOUTLINE16*
4,1,4,
-0.99996,1.00004,
1.00004,0.99996,
0.99996,-1.00004,
-1.00004,-0.99996,
-0.99996,1.00004,
0*%
G04 #@! TA.AperFunction,CopperBalancing*
%ADD15C,0.4*%
G04 #@! TA.AperFunction,Conductor*
%ADD16C,2.0*%
G04 #@! TA.AperFunction,ViaPad*
%ADD17C,1.0*%
G04 #@! TA.AperFunction,Conductor*
%ADD18C,0.33*%
%ADD19C,3.0*%
%ADD21C,1.5*%
G04 #@! TA.AperFunction,CopperBalancing*
%ADD24C,0.635*%
G04 #@! TA.AperFunction,ComponentPad*
%ADD25R,1.6X1.6*%
%ADD26C,1.6*%
%ADD30R,2.0X2.0*%
%ADD31C,2.0*%
%ADD32C,1.2*%
%ADD37C,1.8*%
G04 #@! TA.AperFunction,ViaPad*
%ADD38C,1.2*%
%ADD40C,1.4*%
%ADD45OUTLINE0*%
%ADD46OUTLINE1*%
%ADD57OUTLINE12*%
G04 #@! TA.AperFunction,ComponentPad*
%ADD61OUTLINE16*%
%FSLAX35Y35*%
G04*
G71*
G90*
G75*
G01*
G04 Top*
%LPD*%
X6350000Y3204820D2*
D18*
X6860000D1*
Y1969997D1*
X6740000Y1849997D1*
Y1550000D1*
X6844000Y1446000D1*
Y1207500D1*
X5900000Y3200000D2*
D16*
Y2900000D1*
D19*
Y2727723D1*
Y2500000D1*
X5190230Y2727723D2*
D16*
X5900000D1*
X2150000Y3320000D2*
X2230000Y3240000D1*
X3150000D1*
X3715000Y2675000D1*
X3995000D1*
X4460000Y2210000D1*
Y1750000D1*
X4850000D1*
X3170000Y2110000D2*
D18*
X3720000D1*
X3825000Y2005000D1*
X3160000Y2390000D2*
X3190000D1*
X3255000Y2455000D1*
X3830000D1*
X5182773Y1747720D2*
D17*
X5200000D1*
D16*
Y2215000D1*
X4850000D1*
X3700000Y1495000D2*
D21*
X5182773D1*
Y1747720D1*
D16*
X5900000D1*
D19*
Y2000000D1*
Y1747720D2*
X5901020Y1600007D1*
X6844000Y972500D2*
D18*
Y625500D1*
X6836000Y617500D1*
D38*
X4850000Y2215000D3*
D17*
X3160000Y2390000D3*
X3170000Y2110000D3*
X3825000Y2005000D3*
X3830000Y2455000D3*
D38*
X4850000Y1750000D3*
D40*
X3700000Y1495000D3*
D38*
X5900000Y3200000D3*
D15*
X0Y0D3*
Y3500000D3*
X7900000D3*
Y0D3*
D37*
X4310000Y3046000D3*
X3830000Y2235000D3*
X468213Y3375083D2*
D24*
X740617D1*
X1179380D2*
X1917220D1*
X3350793D2*
X4095103D1*
X4524840D2*
X5739877D1*
X6060103D2*
X6184577D1*
X6515420D2*
X7306443D1*
X7693573D2*
X7805287D1*
X494737Y3311917D2*
X740617D1*
X1179380D2*
X1910747D1*
X3413957D2*
X4081203D1*
X4538787D2*
X5689243D1*
X6110733D2*
X6136680D1*
X6970693D2*
X7237130D1*
X7762890D2*
X7831900D1*
X498157Y3248750D2*
X740617D1*
X1179380D2*
X1921777D1*
X3477120D2*
X4085670D1*
X4534320D2*
X4710703D1*
X4909293D2*
X5665773D1*
X7009250D2*
X7196023D1*
X7803997D2*
X7831900D1*
X479880Y3185583D2*
X740617D1*
X1179380D2*
X1953313D1*
X3540283D2*
X4109870D1*
X4510120D2*
X4629720D1*
X4990277D2*
X5660623D1*
X7015857D2*
X7172097D1*
X492093Y3122417D2*
X740617D1*
X1179380D2*
X2011693D1*
X3603493D2*
X4094147D1*
X4525890D2*
X4594127D1*
X5025870D2*
X5660623D1*
X7015857D2*
X7161660D1*
X499020Y3059250D2*
X740617D1*
X1179380D2*
X2076587D1*
X3666657D2*
X4081023D1*
X4538970D2*
X4581003D1*
X5038997D2*
X5659667D1*
X6140310D2*
X6161700D1*
X7015857D2*
X7163390D1*
X484620Y2996083D2*
X740617D1*
X1179380D2*
X3058047D1*
X3729823D2*
X4086307D1*
X4533727D2*
X4586290D1*
X5033710D2*
X5627447D1*
X6172577D2*
X6240083D1*
X6459913D2*
X6704107D1*
X7015857D2*
X7177563D1*
X488813Y2932917D2*
X3121210D1*
X3792987D2*
X4111420D1*
X4508573D2*
X4611443D1*
X6187433D2*
X6704107D1*
X7015857D2*
X7205910D1*
X7794107D2*
X7831900D1*
X499340Y2869750D2*
X819870D1*
X1100173D2*
X3184373D1*
X4526847D2*
X4666997D1*
X6189393D2*
X6704107D1*
X7015857D2*
X7253443D1*
X7746573D2*
X7831900D1*
X488630Y2806583D2*
X766960D1*
X1153037D2*
X3247540D1*
X4539107D2*
X4900833D1*
X6189393D2*
X6704107D1*
X7015857D2*
X7336707D1*
X7663267D2*
X7831900D1*
X484847Y2743417D2*
X744310D1*
X1175687D2*
X3310703D1*
X4533090D2*
X4900880D1*
X6189393D2*
X6704107D1*
X7015857D2*
X7831900D1*
X499067Y2680250D2*
X741987D1*
X1178057D2*
X1335983D1*
X1644040D2*
X3373867D1*
X4506977D2*
X4900880D1*
X6189393D2*
X6704107D1*
X7015857D2*
X7831900D1*
X491957Y2617083D2*
X759167D1*
X1160830D2*
X1282160D1*
X1697817D2*
X3437030D1*
X4449510D2*
X4900880D1*
X6189393D2*
X6704107D1*
X7015857D2*
X7831900D1*
X480153Y2553917D2*
X802507D1*
X1117537D2*
X1256960D1*
X1723063D2*
X3072220D1*
X4451970D2*
X4916647D1*
X6189393D2*
X6704107D1*
X7015857D2*
X7831900D1*
X498247Y2490750D2*
X1250807D1*
X1729170D2*
X3000853D1*
X4515133D2*
X4979583D1*
X5400890D2*
X5610767D1*
X6189210D2*
X6354837D1*
X6651137D2*
X6704107D1*
X7015857D2*
X7831900D1*
X494647Y2427583D2*
X1262153D1*
X1717823D2*
X2974510D1*
X4578300D2*
X4748210D1*
X5301770D2*
X5620063D1*
X6179960D2*
X6238670D1*
X7015857D2*
X7831900D1*
X474687Y2364417D2*
X1294147D1*
X1685877D2*
X2972413D1*
X4640870D2*
X4664857D1*
X5385167D2*
X5645220D1*
X6154803D2*
X6214563D1*
X7254250D2*
X7410623D1*
X496833Y2301250D2*
X1362003D1*
X1617973D2*
X2993607D1*
X3326410D2*
X3724367D1*
X3935630D2*
X4032850D1*
X5422810D2*
X5692160D1*
X6107863D2*
X6213380D1*
X7316137D2*
X7410623D1*
X496697Y2238083D2*
X3032937D1*
X3803513D2*
X4096017D1*
X5438213D2*
X5740607D1*
X6059373D2*
X6213380D1*
X7343163D2*
X7410623D1*
X474320Y2174917D2*
X2992513D1*
X3899353D2*
X4159180D1*
X5439353D2*
X5671153D1*
X6128827D2*
X6213380D1*
X7349040D2*
X7410623D1*
X494830Y2111750D2*
X2980617D1*
X3980017D2*
X4220610D1*
X5439353D2*
X5633647D1*
X6166377D2*
X6214517D1*
X7335643D2*
X7410623D1*
X498200Y2048583D2*
X2991237D1*
X4009093D2*
X4220610D1*
X5439353D2*
X5614823D1*
X6185153D2*
X6238260D1*
X7298273D2*
X7410623D1*
X479880Y1985417D2*
X3029563D1*
X4013330D2*
X4220610D1*
X4699387D2*
X4803763D1*
X5439353D2*
X5610630D1*
X6189393D2*
X6344537D1*
X7015857D2*
X7054790D1*
X7205213D2*
X7410623D1*
X492187Y1922250D2*
X3655417D1*
X3994600D2*
X4220610D1*
X6189393D2*
X6602753D1*
X7008063D2*
X7831900D1*
X1228097Y1859083D2*
X3708190D1*
X3941827D2*
X4220610D1*
X6189393D2*
X6584387D1*
X7085673D2*
X7831900D1*
X1228097Y1795917D2*
X4220610D1*
X6189393D2*
X6584113D1*
X7128240D2*
X7831900D1*
X1228097Y1732750D2*
X4221250D1*
X6189483D2*
X6584113D1*
X7146923D2*
X7831900D1*
X1228097Y1669583D2*
X3580540D1*
X6189940D2*
X6584113D1*
X7147517D2*
X7831900D1*
X1228097Y1606417D2*
X3517970D1*
X6190350D2*
X6584113D1*
X7130200D2*
X7831900D1*
X1228097Y1543250D2*
X3491307D1*
X6184653D2*
X6584297D1*
X7089687D2*
X7500630D1*
X1228097Y1480083D2*
X3486160D1*
X5396607D2*
X5638293D1*
X6163733D2*
X6601477D1*
X6996170D2*
X7500630D1*
X1228097Y1416917D2*
X3500833D1*
X5381930D2*
X5678853D1*
X6123173D2*
X6655300D1*
X6999860D2*
X7500630D1*
X1228097Y1353750D2*
X3540937D1*
X5341827D2*
X5755190D1*
X6046840D2*
X6643267D1*
X7044750D2*
X7500630D1*
X1228097Y1290583D2*
X3655097D1*
X5227667D2*
X6616837D1*
X7071137D2*
X7500630D1*
X1228097Y1227417D2*
X6613647D1*
X7074373D2*
X7500630D1*
X1228097Y1164250D2*
X3874760D1*
X4483323D2*
X4613907D1*
X4872610D2*
X6353790D1*
X7074373D2*
X7500630D1*
X1579373Y1101083D2*
X1705260D1*
X2014730D2*
X3817110D1*
X4512900D2*
X4550787D1*
X4935727D2*
X6290717D1*
X7064803D2*
X7500997D1*
X1579373Y1037917D2*
X1660417D1*
X2059573D2*
X3789903D1*
X4964483D2*
X6262003D1*
X7073690D2*
X7506147D1*
X1579373Y974750D2*
X1642277D1*
X2077713D2*
X3782153D1*
X4972597D2*
X6253893D1*
X7074373D2*
X7530117D1*
X1579373Y911583D2*
X1643827D1*
X2076210D2*
X3791860D1*
X4962433D2*
X6264100D1*
X7074007D2*
X7581707D1*
X1579373Y848417D2*
X1665473D1*
X2054517D2*
X3818613D1*
X4512490D2*
X4552337D1*
X4934177D2*
X6292267D1*
X7057510D2*
X7831900D1*
X1579373Y785250D2*
X1716517D1*
X2003473D2*
X3790540D1*
X4963800D2*
X6262643D1*
X7019413D2*
X7831900D1*
X1228097Y722083D2*
X3782153D1*
X4972597D2*
X6253893D1*
X7057467D2*
X7410077D1*
X7589940D2*
X7831900D1*
X1228097Y658917D2*
X3791177D1*
X4963163D2*
X6263373D1*
X7066353D2*
X7284660D1*
X7715357D2*
X7831900D1*
X1228097Y595750D2*
X3820117D1*
X4511990D2*
X4553887D1*
X4932627D2*
X6293950D1*
X7066353D2*
X7224550D1*
X7775420D2*
X7831900D1*
X1228097Y532583D2*
X3791177D1*
X4959837D2*
X6266607D1*
X7062797D2*
X7188457D1*
X7811560D2*
X7831900D1*
X1228097Y469417D2*
X3782153D1*
X4972323D2*
X6254167D1*
X7062340D2*
X7168223D1*
X1228097Y406250D2*
X3790540D1*
X4966490D2*
X6260047D1*
X7066353D2*
X7160977D1*
X2180617Y343083D2*
X2309647D1*
X2923590D2*
X3818613D1*
X4512447D2*
X4545910D1*
X4940603D2*
X6285930D1*
X7066353D2*
X7165807D1*
X2252713Y279917D2*
X2309647D1*
X2995687D2*
X3791860D1*
X4962387D2*
X6264057D1*
X7058103D2*
X7183307D1*
X2286390Y216750D2*
X2309647D1*
X3029367D2*
X3782153D1*
X4972597D2*
X6253893D1*
X7021280D2*
X7215890D1*
X7784080D2*
X7831900D1*
X3041990Y153583D2*
X3789903D1*
X4964483D2*
X6262003D1*
X6704457D2*
X7270033D1*
X7729940D2*
X7831900D1*
X3037023Y90417D2*
X3817153D1*
X4512900D2*
X4550743D1*
X4935773D2*
X6290760D1*
X6675700D2*
X7371660D1*
X7628357D2*
X7770193D1*
X770300Y3417020D2*
X1173007D1*
Y2990980D1*
X746967D1*
Y3417020D1*
X770300D1*
X1172890Y2696223D2*
X1172463Y2688453D1*
X1171753Y2680707D1*
X1170763Y2672987D1*
X1169490Y2665310D1*
X1167937Y2657687D1*
X1166107Y2650123D1*
X1164000Y2642633D1*
X1161623Y2635223D1*
X1158977Y2627907D1*
X1156067Y2620690D1*
X1152893Y2613587D1*
X1149460Y2606603D1*
X1145777Y2599747D1*
X1141847Y2593033D1*
X1137673Y2586467D1*
X1133260Y2580057D1*
X1128620Y2573810D1*
X1123750Y2567740D1*
X1118667Y2561850D1*
X1113370Y2556150D1*
X1107867Y2550650D1*
X1102167Y2545350D1*
X1096277Y2540267D1*
X1090207Y2535397D1*
X1083963Y2530757D1*
X1077553Y2526343D1*
X1070987Y2522170D1*
X1064270Y2518237D1*
X1057417Y2514553D1*
X1050433Y2511123D1*
X1043330Y2507950D1*
X1036113Y2505037D1*
X1028797Y2502390D1*
X1021387Y2500013D1*
X1013897Y2497907D1*
X1006333Y2496077D1*
X998707Y2494523D1*
X991033Y2493250D1*
X983313Y2492260D1*
X975567Y2491550D1*
X967797Y2491123D1*
X960017Y2490980D1*
X952237Y2491123D1*
X944467Y2491547D1*
X936717Y2492257D1*
X929000Y2493250D1*
X921323Y2494523D1*
X913700Y2496077D1*
X906137Y2497907D1*
X898643Y2500010D1*
X891237Y2502387D1*
X883917Y2505033D1*
X876703Y2507947D1*
X869597Y2511120D1*
X862613Y2514550D1*
X855760Y2518233D1*
X849043Y2522167D1*
X842477Y2526340D1*
X836067Y2530750D1*
X829823Y2535393D1*
X823753Y2540260D1*
X817863Y2545347D1*
X812163Y2550643D1*
X806660Y2556147D1*
X801363Y2561843D1*
X796277Y2567733D1*
X791410Y2573803D1*
X786767Y2580050D1*
X782357Y2586460D1*
X778180Y2593027D1*
X774250Y2599740D1*
X770567Y2606593D1*
X767133Y2613580D1*
X763960Y2620683D1*
X761050Y2627900D1*
X758403Y2635217D1*
X756023Y2642627D1*
X753920Y2650117D1*
X752090Y2657680D1*
X750537Y2665303D1*
X749263Y2672980D1*
X748270Y2680697D1*
X747560Y2688447D1*
X747133Y2696217D1*
X746993Y2703997D1*
X747133Y2711777D1*
X747560Y2719547D1*
X748270Y2727293D1*
X749260Y2735013D1*
X750533Y2742690D1*
X752087Y2750313D1*
X753917Y2757877D1*
X756023Y2765367D1*
X758400Y2772777D1*
X761047Y2780093D1*
X763957Y2787310D1*
X767133Y2794413D1*
X770563Y2801397D1*
X774247Y2808253D1*
X778177Y2814967D1*
X782350Y2821533D1*
X786763Y2827943D1*
X791403Y2834190D1*
X796273Y2840260D1*
X801357Y2846150D1*
X806657Y2851850D1*
X812157Y2857350D1*
X817857Y2862650D1*
X823747Y2867733D1*
X829817Y2872603D1*
X836060Y2877243D1*
X842470Y2881657D1*
X849037Y2885830D1*
X855753Y2889763D1*
X862607Y2893447D1*
X869590Y2896877D1*
X876697Y2900050D1*
X883910Y2902963D1*
X891227Y2905610D1*
X898637Y2907987D1*
X906127Y2910093D1*
X913690Y2911923D1*
X921317Y2913477D1*
X928993Y2914750D1*
X936710Y2915740D1*
X944460Y2916450D1*
X952227Y2916877D1*
X960007Y2917020D1*
X967787Y2916877D1*
X975557Y2916453D1*
X983307Y2915743D1*
X991023Y2914750D1*
X998700Y2913477D1*
X1006327Y2911923D1*
X1013887Y2910093D1*
X1021380Y2907990D1*
X1028787Y2905613D1*
X1036107Y2902967D1*
X1043320Y2900053D1*
X1050427Y2896880D1*
X1057410Y2893450D1*
X1064263Y2889767D1*
X1070980Y2885833D1*
X1077547Y2881660D1*
X1083957Y2877250D1*
X1090200Y2872607D1*
X1096273Y2867740D1*
X1102160Y2862653D1*
X1107860Y2857357D1*
X1113363Y2851853D1*
X1118660Y2846157D1*
X1123747Y2840267D1*
X1128613Y2834197D1*
X1133257Y2827950D1*
X1137667Y2821540D1*
X1141843Y2814973D1*
X1145773Y2808260D1*
X1149457Y2801407D1*
X1152890Y2794420D1*
X1156063Y2787317D1*
X1158973Y2780100D1*
X1161620Y2772783D1*
X1164000Y2765373D1*
X1166103Y2757883D1*
X1167933Y2750320D1*
X1169487Y2742697D1*
X1170760Y2735020D1*
X1171753Y2727303D1*
X1172463Y2719553D1*
X1172890Y2711783D1*
X1173033Y2704000D1*
X1172890Y2696223D1*
X2071743Y924977D2*
X2067897Y901823D1*
X2061527Y879237D1*
X2052710Y857483D1*
X2041553Y836837D1*
X2028193Y817540D1*
X2012793Y799830D1*
X1995537Y783923D1*
X1976633Y770010D1*
X1956317Y758263D1*
X1934830Y748820D1*
X1912437Y741797D1*
X1889407Y737283D1*
X1866017Y735327D1*
X1842557Y735957D1*
X1819307Y739167D1*
X1796553Y744910D1*
X1774567Y753127D1*
X1753617Y763707D1*
X1733960Y776530D1*
X1715833Y791440D1*
X1699457Y808250D1*
X1685030Y826760D1*
X1672727Y846747D1*
X1662693Y867963D1*
X1655057Y890157D1*
X1649910Y913053D1*
X1647313Y936380D1*
X1647297Y959850D1*
X1649860Y983180D1*
X1654977Y1006083D1*
X1662583Y1028287D1*
X1672583Y1049520D1*
X1684860Y1069520D1*
X1699263Y1088053D1*
X1715617Y1104887D1*
X1733723Y1119820D1*
X1753363Y1132670D1*
X1774297Y1143280D1*
X1796270Y1151527D1*
X1819017Y1157303D1*
X1842260Y1160543D1*
X1865720Y1161207D1*
X1889113Y1159283D1*
X1912150Y1154800D1*
X1934553Y1147810D1*
X1956053Y1138397D1*
X1976387Y1126677D1*
X1995307Y1112790D1*
X2012587Y1096907D1*
X2028013Y1079220D1*
X2041397Y1059943D1*
X2052583Y1039310D1*
X2061430Y1017570D1*
X2067833Y994990D1*
X2071710Y971843D1*
X2073020Y948263D1*
X2071743Y924977D1*
X7831933Y3076687D2*
X7829497Y3053587D1*
X7825457Y3030717D1*
X7819830Y3008183D1*
X7812647Y2986097D1*
X7803940Y2964563D1*
X7793753Y2943693D1*
X7782133Y2923583D1*
X7769140Y2904330D1*
X7754837Y2886033D1*
X7739290Y2868780D1*
X7722577Y2852650D1*
X7704780Y2837727D1*
X7685987Y2824080D1*
X7666287Y2811780D1*
X7645777Y2800880D1*
X7624553Y2791440D1*
X7602727Y2783503D1*
X7580400Y2777110D1*
X7557680Y2772287D1*
X7534680Y2769063D1*
X7511510Y2767450D1*
X7488283Y2767457D1*
X7465117Y2769083D1*
X7442117Y2772323D1*
X7419400Y2777160D1*
X7397077Y2783567D1*
X7375253Y2791517D1*
X7354040Y2800970D1*
X7333537Y2811880D1*
X7313843Y2824197D1*
X7295057Y2837853D1*
X7277270Y2852787D1*
X7260567Y2868927D1*
X7245033Y2886190D1*
X7230740Y2904497D1*
X7217757Y2923757D1*
X7206150Y2943873D1*
X7195977Y2964753D1*
X7187283Y2986290D1*
X7180113Y3008380D1*
X7174500Y3030917D1*
X7170473Y3053793D1*
X7168053Y3076890D1*
X7167250Y3100103D1*
X7168067Y3123313D1*
X7170503Y3146413D1*
X7174543Y3169283D1*
X7180170Y3191817D1*
X7187353Y3213903D1*
X7196060Y3235437D1*
X7206247Y3256307D1*
X7217867Y3276417D1*
X7230860Y3295670D1*
X7245163Y3313967D1*
X7260710Y3331220D1*
X7277423Y3347350D1*
X7295220Y3362273D1*
X7314013Y3375920D1*
X7333713Y3388220D1*
X7354223Y3399120D1*
X7375447Y3408560D1*
X7397273Y3416497D1*
X7419600Y3422890D1*
X7442320Y3427713D1*
X7465320Y3430937D1*
X7488490Y3432550D1*
X7511717Y3432543D1*
X7534883Y3430917D1*
X7557883Y3427677D1*
X7580600Y3422840D1*
X7602923Y3416433D1*
X7624747Y3408483D1*
X7645960Y3399030D1*
X7666463Y3388120D1*
X7686157Y3375803D1*
X7704943Y3362147D1*
X7722730Y3347213D1*
X7739433Y3331073D1*
X7754967Y3313810D1*
X7769260Y3295503D1*
X7782243Y3276243D1*
X7793850Y3256127D1*
X7804023Y3235247D1*
X7812717Y3213710D1*
X7819887Y3191620D1*
X7825500Y3169083D1*
X7829527Y3146207D1*
X7831947Y3123110D1*
X7832750Y3100000D1*
X7831933Y3076687D1*
Y376687D2*
X7829497Y353587D1*
X7825457Y330717D1*
X7819830Y308183D1*
X7812647Y286097D1*
X7803940Y264563D1*
X7793753Y243693D1*
X7782133Y223583D1*
X7769140Y204330D1*
X7754837Y186033D1*
X7739290Y168780D1*
X7722577Y152650D1*
X7704780Y137727D1*
X7685987Y124080D1*
X7666287Y111780D1*
X7645777Y100880D1*
X7624553Y91440D1*
X7602727Y83503D1*
X7580400Y77110D1*
X7557680Y72287D1*
X7534680Y69063D1*
X7511510Y67450D1*
X7488283Y67457D1*
X7465117Y69083D1*
X7442117Y72323D1*
X7419400Y77160D1*
X7397077Y83567D1*
X7375253Y91517D1*
X7354040Y100970D1*
X7333537Y111880D1*
X7313843Y124197D1*
X7295057Y137853D1*
X7277270Y152787D1*
X7260567Y168927D1*
X7245033Y186190D1*
X7230740Y204497D1*
X7217757Y223757D1*
X7206150Y243873D1*
X7195977Y264753D1*
X7187283Y286290D1*
X7180113Y308380D1*
X7174500Y330917D1*
X7170473Y353793D1*
X7168053Y376890D1*
X7167250Y400103D1*
X7168067Y423313D1*
X7170503Y446413D1*
X7174543Y469283D1*
X7180170Y491817D1*
X7187353Y513903D1*
X7196060Y535437D1*
X7206247Y556307D1*
X7217867Y576417D1*
X7230860Y595670D1*
X7245163Y613967D1*
X7260710Y631220D1*
X7277423Y647350D1*
X7295220Y662273D1*
X7314013Y675920D1*
X7333713Y688220D1*
X7354223Y699120D1*
X7375447Y708560D1*
X7397273Y716497D1*
X7419600Y722890D1*
X7442320Y727713D1*
X7465320Y730937D1*
X7488490Y732550D1*
X7511717Y732543D1*
X7534883Y730917D1*
X7557883Y727677D1*
X7580600Y722840D1*
X7602923Y716433D1*
X7624747Y708483D1*
X7645960Y699030D1*
X7666463Y688120D1*
X7686157Y675803D1*
X7704943Y662147D1*
X7722730Y647213D1*
X7739433Y631073D1*
X7754967Y613810D1*
X7769260Y595503D1*
X7782243Y576243D1*
X7793850Y556127D1*
X7804023Y535247D1*
X7812717Y513710D1*
X7819887Y491620D1*
X7825500Y469083D1*
X7829527Y446207D1*
X7831947Y423110D1*
X7832750Y400000D1*
X7831933Y376687D1*
X1979137Y3161560D2*
X1964197Y3179377D1*
X1951117Y3198573D1*
X1940017Y3218980D1*
X1931000Y3240390D1*
X1924163Y3262590D1*
X1919570Y3285363D1*
X1917267Y3308477D1*
X1917273Y3331710D1*
X1919597Y3354823D1*
X1924210Y3377590D1*
X1931063Y3399787D1*
X1940107Y3421207D1*
X1722890Y2492223D2*
X1722500Y2484447D1*
X1721850Y2476687D1*
X1720943Y2468950D1*
X1719777Y2461253D1*
X1718353Y2453597D1*
X1716673Y2445990D1*
X1714743Y2438447D1*
X1712560Y2430970D1*
X1710130Y2423573D1*
X1707453Y2416260D1*
X1704533Y2409040D1*
X1701373Y2401923D1*
X1697980Y2394913D1*
X1694353Y2388023D1*
X1690497Y2381257D1*
X1686417Y2374623D1*
X1682117Y2368130D1*
X1677603Y2361787D1*
X1672880Y2355593D1*
X1667953Y2349563D1*
X1662827Y2343700D1*
X1657507Y2338013D1*
X1652000Y2332507D1*
X1646313Y2327187D1*
X1640453Y2322060D1*
X1634423Y2317133D1*
X1628230Y2312410D1*
X1621887Y2307893D1*
X1615393Y2303593D1*
X1608760Y2299513D1*
X1601993Y2295657D1*
X1595103Y2292030D1*
X1588097Y2288633D1*
X1580977Y2285473D1*
X1573760Y2282553D1*
X1566447Y2279877D1*
X1559047Y2277443D1*
X1551573Y2275263D1*
X1544030Y2273330D1*
X1536423Y2271650D1*
X1528767Y2270227D1*
X1521070Y2269060D1*
X1513333Y2268150D1*
X1505573Y2267500D1*
X1497797Y2267110D1*
X1490010Y2266980D1*
X1482223Y2267110D1*
X1474447Y2267500D1*
X1466687Y2268150D1*
X1458950Y2269057D1*
X1451253Y2270223D1*
X1443597Y2271647D1*
X1435990Y2273327D1*
X1428447Y2275257D1*
X1420970Y2277440D1*
X1413573Y2279870D1*
X1406260Y2282547D1*
X1399040Y2285467D1*
X1391923Y2288627D1*
X1384913Y2292020D1*
X1378023Y2295647D1*
X1371257Y2299503D1*
X1364623Y2303583D1*
X1358130Y2307883D1*
X1351787Y2312397D1*
X1345593Y2317120D1*
X1339563Y2322047D1*
X1333700Y2327173D1*
X1328013Y2332493D1*
X1322507Y2338000D1*
X1317187Y2343687D1*
X1312060Y2349547D1*
X1307133Y2355577D1*
X1302410Y2361770D1*
X1297893Y2368113D1*
X1293593Y2374607D1*
X1289513Y2381240D1*
X1285657Y2388007D1*
X1282030Y2394897D1*
X1278633Y2401903D1*
X1275473Y2409023D1*
X1272553Y2416240D1*
X1269877Y2423553D1*
X1267443Y2430953D1*
X1265263Y2438427D1*
X1263330Y2445970D1*
X1261650Y2453577D1*
X1260227Y2461233D1*
X1259060Y2468930D1*
X1258150Y2476667D1*
X1257500Y2484427D1*
X1257110Y2492203D1*
X1256980Y2499990D1*
X1257110Y2507777D1*
X1257500Y2515553D1*
X1258150Y2523313D1*
X1259057Y2531050D1*
X1260223Y2538747D1*
X1261647Y2546403D1*
X1263327Y2554010D1*
X1265257Y2561553D1*
X1267440Y2569030D1*
X1269870Y2576427D1*
X1272547Y2583740D1*
X1275467Y2590960D1*
X1278627Y2598077D1*
X1282020Y2605087D1*
X1285647Y2611977D1*
X1289503Y2618743D1*
X1293583Y2625377D1*
X1297883Y2631870D1*
X1302397Y2638213D1*
X1307120Y2644407D1*
X1312047Y2650437D1*
X1317173Y2656300D1*
X1322493Y2661987D1*
X1328000Y2667493D1*
X1333687Y2672813D1*
X1339547Y2677940D1*
X1345577Y2682867D1*
X1351770Y2687590D1*
X1358113Y2692107D1*
X1364607Y2696407D1*
X1371240Y2700487D1*
X1378007Y2704343D1*
X1384897Y2707970D1*
X1391903Y2711367D1*
X1399023Y2714527D1*
X1406240Y2717447D1*
X1413553Y2720123D1*
X1420953Y2722557D1*
X1428427Y2724737D1*
X1435970Y2726670D1*
X1443577Y2728350D1*
X1451233Y2729773D1*
X1458930Y2730940D1*
X1466667Y2731850D1*
X1474427Y2732500D1*
X1482203Y2732890D1*
X1489990Y2733020D1*
X1497777Y2732890D1*
X1505553Y2732500D1*
X1513313Y2731850D1*
X1521050Y2730943D1*
X1528747Y2729777D1*
X1536403Y2728353D1*
X1544010Y2726673D1*
X1551553Y2724743D1*
X1559030Y2722560D1*
X1566427Y2720130D1*
X1573740Y2717453D1*
X1580960Y2714533D1*
X1588077Y2711373D1*
X1595087Y2707980D1*
X1601977Y2704353D1*
X1608743Y2700497D1*
X1615377Y2696417D1*
X1621870Y2692117D1*
X1628213Y2687603D1*
X1634407Y2682880D1*
X1640437Y2677953D1*
X1646300Y2672827D1*
X1651987Y2667507D1*
X1657493Y2662000D1*
X1662813Y2656313D1*
X1667940Y2650453D1*
X1672867Y2644423D1*
X1677590Y2638230D1*
X1682107Y2631887D1*
X1686407Y2625393D1*
X1690487Y2618760D1*
X1694343Y2611993D1*
X1697970Y2605103D1*
X1701367Y2598097D1*
X1704527Y2590977D1*
X1707447Y2583760D1*
X1710123Y2576447D1*
X1712557Y2569047D1*
X1714737Y2561573D1*
X1716670Y2554030D1*
X1718350Y2546423D1*
X1719773Y2538767D1*
X1720940Y2531070D1*
X1721850Y2523333D1*
X1722500Y2515573D1*
X1722890Y2507797D1*
X1723020Y2500000D1*
X1722890Y2492223D1*
X3994930Y2908020D2*
X3811523Y2908017D1*
X3314770Y3404770D1*
X3308490Y3410820D1*
X3290620Y3425807D1*
X3272437Y3438250D1*
X4138603Y3438243D1*
X4129550Y3427063D1*
X4116837Y3407483D1*
X4106243Y3386683D1*
X4097880Y3364890D1*
X4091840Y3342340D1*
X4088190Y3319283D1*
X4086970Y3295970D1*
X4088193Y3272660D1*
X4091847Y3249603D1*
X4097893Y3227053D1*
X4106260Y3205263D1*
X4116860Y3184463D1*
X4125450Y3170743D1*
X4116850Y3157490D1*
X4106253Y3136690D1*
X4097890Y3114897D1*
X4091850Y3092347D1*
X4088200Y3069290D1*
X4086980Y3045980D1*
X4088203Y3022667D1*
X4091857Y2999610D1*
X4097903Y2977063D1*
X4106270Y2955270D1*
X4116870Y2934470D1*
X4125460Y2920733D1*
X4116860Y2907483D1*
X4106263Y2886683D1*
X4104050Y2880913D1*
X4095847Y2885067D1*
X4074340Y2894097D1*
X4052040Y2900930D1*
X4029170Y2905500D1*
X4005933Y2907763D1*
X3994930Y2908020D1*
X7022187Y805947D2*
X7036890Y824070D1*
X7048973Y844010D1*
X7058230Y865410D1*
X7064490Y887867D1*
X7067637Y910993D1*
X7068020Y922507D1*
Y1022203D1*
X7067610Y1034423D1*
X7064410Y1057517D1*
X7058090Y1079983D1*
X7058230Y1100410D1*
X7064490Y1122867D1*
X7067637Y1145993D1*
X7068020Y1157507D1*
Y1257447D1*
X7067610Y1269423D1*
X7064410Y1292517D1*
X7058097Y1314963D1*
X7048790Y1336340D1*
X7036663Y1356250D1*
X7021937Y1374327D1*
X7004887Y1390230D1*
X6993520Y1398703D1*
X6993490Y1449067D1*
X6991197Y1472263D1*
X6989597Y1480030D1*
X6993760Y1481553D1*
X7000977Y1484473D1*
X7008097Y1487633D1*
X7015103Y1491030D1*
X7021993Y1494657D1*
X7028760Y1498513D1*
X7035393Y1502593D1*
X7041887Y1506893D1*
X7048230Y1511410D1*
X7054423Y1516133D1*
X7060453Y1521060D1*
X7066313Y1526187D1*
X7072000Y1531507D1*
X7077507Y1537013D1*
X7082827Y1542700D1*
X7087953Y1548563D1*
X7092880Y1554593D1*
X7097603Y1560787D1*
X7102117Y1567130D1*
X7106417Y1573623D1*
X7110497Y1580257D1*
X7114353Y1587023D1*
X7117980Y1593913D1*
X7121373Y1600923D1*
X7124533Y1608040D1*
X7127453Y1615260D1*
X7130130Y1622573D1*
X7132560Y1629970D1*
X7134743Y1637447D1*
X7136673Y1644990D1*
X7138353Y1652597D1*
X7139777Y1660253D1*
X7140943Y1667950D1*
X7141850Y1675687D1*
X7142500Y1683447D1*
X7142890Y1691223D1*
X7143020Y1699010D1*
X7142890Y1706797D1*
X7142500Y1714573D1*
X7141850Y1722333D1*
X7140940Y1730070D1*
X7139773Y1737767D1*
X7138350Y1745423D1*
X7136670Y1753030D1*
X7134737Y1760573D1*
X7132557Y1768047D1*
X7130123Y1775447D1*
X7127447Y1782760D1*
X7124527Y1789977D1*
X7121367Y1797097D1*
X7117970Y1804103D1*
X7114343Y1810993D1*
X7110487Y1817760D1*
X7106407Y1824393D1*
X7102107Y1830887D1*
X7097590Y1837230D1*
X7092867Y1843423D1*
X7087940Y1849453D1*
X7082813Y1855313D1*
X7077493Y1861000D1*
X7071987Y1866507D1*
X7066300Y1871827D1*
X7060437Y1876953D1*
X7054407Y1881880D1*
X7048213Y1886603D1*
X7041870Y1891117D1*
X7035377Y1895417D1*
X7028743Y1899497D1*
X7021977Y1903353D1*
X7015087Y1906980D1*
X7008077Y1910373D1*
X7000960Y1913533D1*
X6998810Y1914403D1*
X7005433Y1935283D1*
X7009063Y1958330D1*
X7009520Y1970060D1*
X7009517Y2011360D1*
X7012467Y2009333D1*
X7019033Y2005157D1*
X7025747Y2001227D1*
X7032603Y1997543D1*
X7039587Y1994113D1*
X7046690Y1990940D1*
X7053907Y1988027D1*
X7061223Y1985380D1*
X7068633Y1983003D1*
X7076123Y1980897D1*
X7083687Y1979067D1*
X7091310Y1977517D1*
X7098987Y1976243D1*
X7106707Y1975250D1*
X7114453Y1974540D1*
X7122223Y1974113D1*
X7130003Y1973973D1*
X7137783Y1974113D1*
X7145553Y1974540D1*
X7153303Y1975250D1*
X7161020Y1976243D1*
X7168697Y1977517D1*
X7176320Y1979070D1*
X7183883Y1980900D1*
X7191373Y1983007D1*
X7198783Y1985383D1*
X7206100Y1988030D1*
X7213317Y1990943D1*
X7220420Y1994117D1*
X7227407Y1997547D1*
X7234260Y2001230D1*
X7240973Y2005163D1*
X7247540Y2009337D1*
X7253950Y2013747D1*
X7260197Y2018390D1*
X7266267Y2023257D1*
X7272157Y2028343D1*
X7277853Y2033640D1*
X7283357Y2039143D1*
X7288653Y2044843D1*
X7293740Y2050733D1*
X7298607Y2056803D1*
X7303250Y2063047D1*
X7307660Y2069457D1*
X7311833Y2076027D1*
X7315767Y2082740D1*
X7319450Y2089593D1*
X7322880Y2096580D1*
X7326053Y2103683D1*
X7328967Y2110900D1*
X7331613Y2118217D1*
X7333990Y2125627D1*
X7336093Y2133117D1*
X7337923Y2140680D1*
X7339477Y2148303D1*
X7340750Y2155980D1*
X7341743Y2163697D1*
X7342453Y2171447D1*
X7342877Y2179217D1*
X7343020Y2186997D1*
X7342877Y2194777D1*
X7342450Y2202547D1*
X7341740Y2210293D1*
X7340750Y2218013D1*
X7339477Y2225690D1*
X7337923Y2233313D1*
X7336093Y2240877D1*
X7333987Y2248367D1*
X7331610Y2255777D1*
X7328963Y2263093D1*
X7326050Y2270310D1*
X7322877Y2277413D1*
X7319447Y2284397D1*
X7315763Y2291253D1*
X7311830Y2297967D1*
X7307657Y2304533D1*
X7303243Y2310943D1*
X7298603Y2317187D1*
X7293733Y2323260D1*
X7288650Y2329147D1*
X7283350Y2334847D1*
X7277850Y2340350D1*
X7272150Y2345647D1*
X7266260Y2350733D1*
X7260190Y2355600D1*
X7253943Y2360243D1*
X7247533Y2364653D1*
X7240967Y2368827D1*
X7234253Y2372760D1*
X7227397Y2376443D1*
X7220413Y2379873D1*
X7213310Y2383047D1*
X7206093Y2385957D1*
X7198777Y2388603D1*
X7191367Y2390983D1*
X7183877Y2393087D1*
X7176313Y2394917D1*
X7168690Y2396470D1*
X7161013Y2397743D1*
X7153293Y2398737D1*
X7145547Y2399443D1*
X7137777Y2399870D1*
X7129997Y2400013D1*
X7122217Y2399870D1*
X7114447Y2399443D1*
X7106697Y2398733D1*
X7098980Y2397743D1*
X7091303Y2396470D1*
X7083680Y2394917D1*
X7076117Y2393087D1*
X7068627Y2390980D1*
X7061217Y2388603D1*
X7053900Y2385957D1*
X7046683Y2383043D1*
X7039580Y2379870D1*
X7032593Y2376440D1*
X7025740Y2372753D1*
X7019027Y2368823D1*
X7012460Y2364650D1*
X7009520Y2362667D1*
X7009490Y3207883D1*
X7007197Y3231080D1*
X7001327Y3253640D1*
X6992020Y3275010D1*
X6979507Y3294677D1*
X6964090Y3312160D1*
X6946140Y3327033D1*
X6926100Y3338937D1*
X6904453Y3347580D1*
X6881700Y3352757D1*
X6859940Y3354340D1*
X6528713Y3354333D1*
X6512770Y3371567D1*
X6495360Y3386943D1*
X6476503Y3400513D1*
X6456390Y3412137D1*
X6435220Y3421697D1*
X6413200Y3429107D1*
X6390557Y3434283D1*
X6367507Y3437180D1*
X6344283Y3437770D1*
X6321117Y3436043D1*
X6298240Y3432020D1*
X6275873Y3425737D1*
X6254247Y3417257D1*
X6233570Y3406667D1*
X6214053Y3394073D1*
X6195883Y3379597D1*
X6179247Y3363383D1*
X6164310Y3345593D1*
X6151213Y3326403D1*
X6140097Y3306007D1*
X6131063Y3284607D1*
X6124227Y3262447D1*
X6119850Y3277233D1*
X6111027Y3298823D1*
X6100090Y3319423D1*
X6087150Y3338830D1*
X6072333Y3356843D1*
X6055793Y3373283D1*
X6037690Y3387990D1*
X6018207Y3400813D1*
X5997540Y3411623D1*
X5975897Y3420313D1*
X5953490Y3426797D1*
X5930550Y3431010D1*
X5907303Y3432907D1*
X5883987Y3432470D1*
X5860827Y3429703D1*
X5838060Y3424637D1*
X5815913Y3417320D1*
X5794610Y3407827D1*
X5774363Y3396250D1*
X5755373Y3382707D1*
X5737833Y3367333D1*
X5721917Y3350283D1*
X5707787Y3331727D1*
X5695580Y3311853D1*
X5685423Y3290857D1*
X5677413Y3268953D1*
X5671637Y3246357D1*
X5668147Y3223293D1*
X5666980Y3200000D1*
X5666977Y3060263D1*
X5662817Y3054417D1*
X5650907Y3034360D1*
X5640687Y3013390D1*
X5632230Y2991650D1*
X5625593Y2969290D1*
X5623563Y2960743D1*
X5423887D1*
X5400383Y2961520D1*
X5379300Y2971457D1*
X5356897Y2977887D1*
X5333730Y2980643D1*
X5328160Y2980747D1*
X5052217Y2980737D1*
X5030703Y2979130D1*
X5022247Y2977620D1*
X5028150Y2999663D1*
X5031800Y3022720D1*
X5033020Y3046033D1*
X5031797Y3069343D1*
X5028143Y3092400D1*
X5022097Y3114950D1*
X5013730Y3136740D1*
X5003130Y3157540D1*
X4990413Y3177117D1*
X4975723Y3195257D1*
X4959213Y3211763D1*
X4941070Y3226450D1*
X4921490Y3239163D1*
X4900690Y3249760D1*
X4878897Y3258123D1*
X4856347Y3264163D1*
X4833290Y3267813D1*
X4809980Y3269033D1*
X4786667Y3267807D1*
X4763610Y3264153D1*
X4741063Y3258110D1*
X4719270Y3249743D1*
X4698470Y3239143D1*
X4678893Y3226427D1*
X4660753Y3211733D1*
X4644250Y3195227D1*
X4629560Y3177083D1*
X4616847Y3157503D1*
X4606253Y3136703D1*
X4597890Y3114910D1*
X4591850Y3092360D1*
X4588200Y3069303D1*
X4586980Y3045990D1*
X4588203Y3022680D1*
X4591857Y2999623D1*
X4597903Y2977073D1*
X4606270Y2955283D1*
X4616870Y2934483D1*
X4629587Y2914907D1*
X4644277Y2896767D1*
X4660787Y2880260D1*
X4678930Y2865573D1*
X4698510Y2852860D1*
X4719310Y2842263D1*
X4741103Y2833900D1*
X4763653Y2827860D1*
X4786710Y2824210D1*
X4810020Y2822993D1*
X4833333Y2824217D1*
X4856390Y2827870D1*
X4878937Y2833913D1*
X4900730Y2842280D1*
X4907533Y2845750D1*
X4907310Y2841220D1*
X4907203Y2835383D1*
X4907213Y2619710D1*
X4907733Y2607463D1*
X4911560Y2584473D1*
X4919023Y2562390D1*
X4929930Y2541790D1*
X4943993Y2523203D1*
X4960853Y2507110D1*
X4980073Y2493923D1*
X5001157Y2483987D1*
X5023560Y2477560D1*
X5046727Y2474803D1*
X5052297Y2474697D1*
X5327903Y2474707D1*
X5345993Y2475800D1*
X5368820Y2480503D1*
X5390620Y2488817D1*
X5401723Y2494703D1*
X5617133Y2494687D1*
X5618153Y2474233D1*
X5621233Y2451113D1*
X5626207Y2428320D1*
X5633040Y2406017D1*
X5641687Y2384353D1*
X5652087Y2363473D1*
X5664173Y2343520D1*
X5677860Y2324633D1*
X5693057Y2306933D1*
X5709657Y2290547D1*
X5727553Y2275583D1*
X5746620Y2262147D1*
X5766727Y2250323D1*
X5767437Y2249927D1*
X5764557Y2248507D1*
X5744550Y2236507D1*
X5725603Y2222903D1*
X5707837Y2207783D1*
X5691380Y2191253D1*
X5676340Y2173423D1*
X5662817Y2154417D1*
X5650907Y2134360D1*
X5640687Y2113390D1*
X5632230Y2091650D1*
X5625593Y2069290D1*
X5620817Y2046457D1*
X5617940Y2023307D1*
X5616980Y2000000D1*
X5616960Y1980743D1*
X5433020Y1980747D1*
Y2214930D1*
X5432470Y2231013D1*
X5429703Y2254173D1*
X5424637Y2276940D1*
X5417320Y2299087D1*
X5407827Y2320390D1*
X5396250Y2340637D1*
X5382707Y2359627D1*
X5367333Y2377167D1*
X5350283Y2393083D1*
X5331727Y2407213D1*
X5311853Y2419420D1*
X5290857Y2429577D1*
X5268953Y2437587D1*
X5246357Y2443363D1*
X5223293Y2446853D1*
X5200000Y2448020D1*
X4850000D1*
X4841280Y2447857D1*
X4818047Y2445820D1*
X4795133Y2441470D1*
X4772767Y2434850D1*
X4751177Y2426027D1*
X4730577Y2415090D1*
X4711170Y2402150D1*
X4693157Y2387333D1*
X4676717Y2370793D1*
X4662010Y2352690D1*
X4647150Y2348827D1*
X4632317Y2366857D1*
X4624710Y2374830D1*
X4405067Y2594467D1*
X4421540Y2602860D1*
X4441117Y2615577D1*
X4459257Y2630270D1*
X4475760Y2646777D1*
X4490450Y2664920D1*
X4503160Y2684500D1*
X4513757Y2705300D1*
X4522120Y2727093D1*
X4528160Y2749643D1*
X4531810Y2772700D1*
X4533030Y2796013D1*
X4531807Y2819323D1*
X4528153Y2842380D1*
X4522107Y2864930D1*
X4513740Y2886720D1*
X4503140Y2907520D1*
X4494550Y2921257D1*
X4503150Y2934510D1*
X4513747Y2955310D1*
X4522110Y2977103D1*
X4528150Y2999653D1*
X4531800Y3022710D1*
X4533020Y3046020D1*
X4531797Y3069333D1*
X4528143Y3092390D1*
X4522097Y3114937D1*
X4513730Y3136730D1*
X4503130Y3157530D1*
X4494540Y3171250D1*
X4503140Y3184500D1*
X4513737Y3205300D1*
X4522100Y3227093D1*
X4528140Y3249643D1*
X4531790Y3272700D1*
X4533010Y3296013D1*
X4531787Y3319323D1*
X4528133Y3342380D1*
X4522087Y3364930D1*
X4513720Y3386720D1*
X4503120Y3407520D1*
X4490403Y3427097D1*
X4481760Y3438250D1*
X7760323Y3438243D1*
X7768530Y3421703D1*
X7782020Y3402553D1*
X7798280Y3385683D1*
X7816920Y3371497D1*
X7837510Y3360320D1*
X7838250Y3359990D1*
X7838247Y2400027D1*
X7416980D1*
Y1973987D1*
X7838250Y1973983D1*
X7838230Y1575270D1*
X7506983D1*
Y1109230D1*
X7508203Y1109237D1*
X7507270Y1099960D1*
X7507263Y1076727D1*
X7509567Y1053613D1*
X7514160Y1030840D1*
X7520997Y1008640D1*
X7530013Y987230D1*
X7541113Y966823D1*
X7554193Y947627D1*
X7569117Y929823D1*
X7585740Y913597D1*
X7603897Y899107D1*
X7623407Y886497D1*
X7644073Y875890D1*
X7665693Y867393D1*
X7688053Y861093D1*
X7710930Y857050D1*
X7734093Y855303D1*
X7757317Y855873D1*
X7780370Y858753D1*
X7803017Y863913D1*
X7825043Y871303D1*
X7838257Y877260D1*
X7838250Y146577D1*
X7838267Y139933D1*
X7837297Y139583D1*
X7816727Y128377D1*
X7798103Y114160D1*
X7781873Y97267D1*
X7768410Y78097D1*
X7759973Y61750D1*
X6646663Y61740D1*
X6649000Y64077D1*
X6663690Y82220D1*
X6676400Y101800D1*
X6686997Y122600D1*
X6695360Y144393D1*
X6701400Y166943D1*
X6703620Y180970D1*
X6707810Y178870D1*
X6714870Y175613D1*
X6722073Y172680D1*
X6729403Y170077D1*
X6736843Y167810D1*
X6744377Y165883D1*
X6751993Y164303D1*
X6759670Y163070D1*
X6767397Y162187D1*
X6775157Y161657D1*
X6782930Y161480D1*
X6889463D1*
X6897237Y161677D1*
X6904997Y162223D1*
X6912720Y163123D1*
X6920397Y164373D1*
X6928007Y165973D1*
X6935537Y167917D1*
X6942970Y170200D1*
X6950293Y172820D1*
X6957490Y175770D1*
X6964543Y179043D1*
X6971443Y182633D1*
X6978170Y186537D1*
X6984713Y190740D1*
X6991060Y195237D1*
X6997193Y200017D1*
X7003103Y205073D1*
X7008777Y210390D1*
X7014203Y215960D1*
X7019373Y221773D1*
X7024270Y227813D1*
X7028890Y234070D1*
X7033217Y240533D1*
X7037247Y247183D1*
X7040973Y254010D1*
X7044380Y261000D1*
X7047470Y268140D1*
X7050230Y275410D1*
X7052657Y282797D1*
X7054743Y290290D1*
X7056490Y297870D1*
X7057890Y305520D1*
X7058937Y313223D1*
X7059637Y320970D1*
X7059980Y328747D1*
X7060020Y347637D1*
Y432963D1*
X7059823Y440737D1*
X7059277Y448497D1*
X7058377Y456220D1*
X7057127Y463897D1*
X7055527Y471507D1*
X7053583Y479037D1*
X7051300Y486470D1*
X7048680Y493793D1*
X7050230Y510410D1*
X7056490Y532867D1*
X7059637Y555993D1*
X7060020Y567507D1*
Y667447D1*
X7059610Y679423D1*
X7056410Y702517D1*
X7050097Y724963D1*
X7040790Y746340D1*
X7028663Y766250D1*
X7013920Y784343D1*
X7022187Y805947D1*
X7838263Y3360050D2*
X7837510Y3360320D1*
X7816920Y3371497D1*
X7798280Y3385683D1*
X7782020Y3402553D1*
X7768530Y3421703D1*
X7760323Y3438243D1*
X7760330Y61750D2*
X7768410Y78097D1*
X7781873Y97267D1*
X7798103Y114160D1*
X7816727Y128377D1*
X7837297Y139583D1*
X7838267Y139933D1*
X4962213Y1974943D2*
X4966980Y1981087D1*
Y1981973D1*
X4871990Y1981980D1*
X4884870Y1980397D1*
X4896357Y1978363D1*
X4907727Y1975757D1*
X4918953Y1972583D1*
X4930007Y1968857D1*
X4940857Y1964577D1*
X4946243Y1962137D1*
X4962213Y1974943D1*
X4693020Y2042783D2*
Y1983040D1*
X4827997Y1983020D1*
X4815130Y1984603D1*
X4803643Y1986637D1*
X4792273Y1989243D1*
X4781047Y1992413D1*
X4769993Y1996143D1*
X4759143Y2000423D1*
X4748517Y2005240D1*
X4738147Y2010580D1*
X4718273Y2022787D1*
X4699717Y2036917D1*
X4693007Y2043180D1*
X4153353Y1209410D2*
X4130783Y1203527D1*
X4109633Y1193817D1*
X4106720Y1195133D1*
X4084700Y1202540D1*
X4062057Y1207720D1*
X4039007Y1210617D1*
X4015783Y1211207D1*
X3992617Y1209480D1*
X3969740Y1205453D1*
X3947373Y1199170D1*
X3925747Y1190693D1*
X3905070Y1180103D1*
X3885553Y1167507D1*
X3867383Y1153030D1*
X3850747Y1136817D1*
X3835810Y1119027D1*
X3822713Y1099840D1*
X3811597Y1079443D1*
X3802563Y1058040D1*
X3795710Y1035847D1*
X3791097Y1013077D1*
X3788773Y989963D1*
X3788767Y966733D1*
X3791070Y943617D1*
X3795663Y920847D1*
X3802500Y898647D1*
X3811517Y877237D1*
X3822617Y856830D1*
X3826590Y850517D1*
X3822713Y844840D1*
X3811597Y824443D1*
X3802563Y803040D1*
X3795710Y780847D1*
X3791097Y758077D1*
X3788773Y734963D1*
X3788767Y711733D1*
X3791070Y688617D1*
X3795663Y665847D1*
X3802500Y643647D1*
X3811517Y622237D1*
X3822617Y601830D1*
X3826590Y595517D1*
X3822713Y589840D1*
X3811597Y569443D1*
X3802563Y548040D1*
X3795710Y525847D1*
X3791097Y503077D1*
X3788773Y479963D1*
X3788767Y456733D1*
X3791070Y433617D1*
X3795663Y410847D1*
X3802500Y388647D1*
X3811517Y367237D1*
X3822617Y346830D1*
X3826590Y340517D1*
X3822713Y334840D1*
X3811597Y314443D1*
X3802563Y293040D1*
X3795710Y270847D1*
X3791097Y248077D1*
X3788773Y224963D1*
X3788767Y201733D1*
X3791070Y178617D1*
X3795663Y155847D1*
X3802500Y133647D1*
X3811517Y112237D1*
X3822617Y91830D1*
X3835697Y72630D1*
X3844440Y61750D1*
X3022460Y61753D1*
X3023127Y63573D1*
X3025557Y70970D1*
X3027740Y78447D1*
X3029670Y85990D1*
X3031350Y93597D1*
X3032773Y101253D1*
X3033940Y108950D1*
X3034847Y116687D1*
X3035497Y124447D1*
X3035887Y132223D1*
X3036017Y140010D1*
X3035887Y147797D1*
X3035497Y155573D1*
X3034847Y163333D1*
X3033937Y171067D1*
X3032770Y178767D1*
X3031347Y186423D1*
X3029667Y194030D1*
X3027733Y201573D1*
X3025553Y209047D1*
X3023120Y216447D1*
X3020443Y223760D1*
X3017523Y230977D1*
X3014363Y238097D1*
X3010967Y245103D1*
X3007340Y251993D1*
X3003483Y258760D1*
X2999403Y265393D1*
X2995103Y271887D1*
X2990587Y278230D1*
X2985863Y284423D1*
X2980937Y290453D1*
X2975810Y296313D1*
X2970490Y302000D1*
X2964983Y307507D1*
X2959297Y312827D1*
X2953433Y317953D1*
X2947403Y322880D1*
X2941210Y327603D1*
X2934867Y332117D1*
X2928373Y336417D1*
X2921740Y340497D1*
X2914973Y344350D1*
X2908083Y347980D1*
X2901073Y351373D1*
X2893957Y354533D1*
X2886737Y357453D1*
X2879423Y360130D1*
X2872027Y362560D1*
X2864550Y364743D1*
X2857007Y366673D1*
X2849400Y368353D1*
X2841743Y369777D1*
X2834047Y370943D1*
X2826310Y371850D1*
X2818550Y372500D1*
X2810773Y372890D1*
X2802987Y373020D1*
X2795200Y372890D1*
X2787423Y372500D1*
X2782017Y372073D1*
Y373007D1*
X2315977D1*
X2315970Y61750D1*
X2279183Y61753D1*
X2282640Y71240D1*
X2288380Y93750D1*
X2291853Y116720D1*
X2293020Y140013D1*
X2291870Y163120D1*
X2288417Y186093D1*
X2282697Y208607D1*
X2274760Y230440D1*
X2264687Y251373D1*
X2252583Y271200D1*
X2238563Y289723D1*
X2222770Y306760D1*
X2205360Y322137D1*
X2186503Y335707D1*
X2166390Y347327D1*
X2145220Y356890D1*
X2123200Y364297D1*
X2100557Y369477D1*
X2077507Y372373D1*
X2054283Y372963D1*
X2031117Y371237D1*
X2008240Y367210D1*
X1985873Y360930D1*
X1964247Y352450D1*
X1943570Y341860D1*
X1932963Y335360D1*
X1932503Y335693D1*
X1912390Y347317D1*
X1891220Y356877D1*
X1869200Y364287D1*
X1846557Y369463D1*
X1823507Y372360D1*
X1800283Y372950D1*
X1777117Y371223D1*
X1754240Y367200D1*
X1731873Y360917D1*
X1710247Y352437D1*
X1689570Y341847D1*
X1678963Y335347D1*
X1678503Y335680D1*
X1658390Y347303D1*
X1637220Y356863D1*
X1615200Y364273D1*
X1592557Y369450D1*
X1569507Y372347D1*
X1546283Y372937D1*
X1531020Y372060D1*
Y372993D1*
X1221750Y372983D1*
X1221767Y735217D1*
X1573020D1*
Y1161257D1*
X1221750Y1161260D1*
X1221730Y1891097D1*
X1217027Y1906660D1*
X1205223Y1917860D1*
X1189957Y1921750D1*
X485690Y1921767D1*
X480497Y1938433D1*
X470933Y1959690D1*
X464893Y1969683D1*
X464897Y1970333D1*
X470913Y1980290D1*
X480480Y2001543D1*
X487417Y2023797D1*
X491620Y2046723D1*
X493027Y2070000D1*
X492803Y2079287D1*
X490280Y2102457D1*
X484980Y2125157D1*
X476983Y2147050D1*
X466407Y2167820D1*
X465020Y2169880D1*
X464887Y2170333D1*
X470907Y2180290D1*
X480473Y2201543D1*
X487407Y2223797D1*
X491610Y2246723D1*
X493020Y2270000D1*
X491613Y2293253D1*
X487413Y2316180D1*
X480480Y2338433D1*
X470917Y2359690D1*
X464873Y2369683D1*
X464880Y2370333D1*
X470897Y2380290D1*
X480463Y2401543D1*
X487400Y2423797D1*
X491603Y2446723D1*
X493010Y2470000D1*
X491603Y2493253D1*
X487403Y2516180D1*
X480470Y2538433D1*
X470907Y2559690D1*
X464870Y2570333D1*
X470887Y2580290D1*
X480453Y2601543D1*
X487390Y2623797D1*
X491593Y2646723D1*
X493003Y2670000D1*
X491597Y2693253D1*
X487397Y2716180D1*
X480463Y2738433D1*
X470897Y2759690D1*
X464860Y2770333D1*
X470880Y2780290D1*
X480447Y2801543D1*
X487380Y2823797D1*
X491583Y2846723D1*
X492993Y2870000D1*
X491587Y2893253D1*
X487387Y2916180D1*
X480453Y2938433D1*
X470890Y2959690D1*
X464847Y2969683D1*
X464853Y2970333D1*
X470870Y2980290D1*
X480437Y3001543D1*
X487373Y3023797D1*
X491577Y3046723D1*
X492983Y3070000D1*
X491577Y3093253D1*
X487377Y3116180D1*
X480443Y3138433D1*
X470880Y3159690D1*
X464840Y3169683D1*
X464843Y3170333D1*
X470860Y3180290D1*
X480430Y3201543D1*
X487363Y3223797D1*
X491567Y3246723D1*
X492977Y3270000D1*
X491570Y3293253D1*
X487370Y3316180D1*
X480437Y3338433D1*
X470870Y3359690D1*
X461747Y3374787D1*
X461773Y3438250D1*
X1943417D1*
X1947360Y3435043D1*
X1936873Y3414210D1*
X1928523Y3392433D1*
X1922393Y3369930D1*
X1918540Y3346927D1*
X1917010Y3323653D1*
X1917810Y3300343D1*
X1920940Y3277230D1*
X1926363Y3254547D1*
X1934027Y3232517D1*
X1943853Y3211367D1*
X1955747Y3191300D1*
X1969583Y3172527D1*
X1985900Y3154560D1*
X2065163Y3075297D1*
X2079717Y3061917D1*
X2098273Y3047787D1*
X2118147Y3035580D1*
X2139143Y3025423D1*
X2161047Y3017417D1*
X2183643Y3011637D1*
X2206707Y3008147D1*
X2230000Y3006980D1*
X3053477Y3006983D1*
X3455920Y2604520D1*
X3251937Y2604490D1*
X3228740Y2602197D1*
X3206180Y2596327D1*
X3184810Y2587020D1*
X3165143Y2574507D1*
X3162960Y2572840D1*
X3142290Y2572160D1*
X3119143Y2568400D1*
X3096663Y2561713D1*
X3075227Y2552203D1*
X3055180Y2540030D1*
X3036857Y2525393D1*
X3020553Y2508537D1*
X3006540Y2489730D1*
X2995047Y2469287D1*
X2986260Y2447543D1*
X2980330Y2424853D1*
X2977347Y2401590D1*
X2977363Y2378140D1*
X2980380Y2354880D1*
X2986347Y2332200D1*
X2995163Y2310470D1*
X3006687Y2290043D1*
X3020727Y2271260D1*
X3037057Y2254423D1*
X3047573Y2246050D1*
X3046857Y2245393D1*
X3030553Y2228537D1*
X3016540Y2209730D1*
X3005047Y2189287D1*
X2996260Y2167543D1*
X2990330Y2144853D1*
X2987347Y2121590D1*
X2987363Y2098140D1*
X2990380Y2074880D1*
X2996347Y2052200D1*
X3005163Y2030470D1*
X3016687Y2010043D1*
X3030727Y1991260D1*
X3047057Y1974423D1*
X3065403Y1959813D1*
X3085467Y1947673D1*
X3106917Y1938193D1*
X3129407Y1931540D1*
X3152560Y1927813D1*
X3176000Y1927080D1*
X3199343Y1929347D1*
X3222203Y1934583D1*
X3244207Y1942700D1*
X3264990Y1953563D1*
X3274887Y1960473D1*
X3647857Y1960467D1*
X3651347Y1947200D1*
X3660163Y1925470D1*
X3671687Y1905043D1*
X3685727Y1886260D1*
X3702057Y1869423D1*
X3720403Y1854813D1*
X3740467Y1842673D1*
X3761917Y1833193D1*
X3784407Y1826540D1*
X3807560Y1822813D1*
X3831000Y1822080D1*
X3854343Y1824347D1*
X3877203Y1829583D1*
X3899207Y1837700D1*
X3919990Y1848563D1*
X3939217Y1861993D1*
X3956567Y1877773D1*
X3971757Y1895643D1*
X3984533Y1915307D1*
X3994693Y1936443D1*
X4002070Y1958707D1*
X4006533Y1981730D1*
X4008020Y2005137D1*
X4006500Y2028537D1*
X4002000Y2051553D1*
X3994593Y2073807D1*
X3984403Y2094930D1*
X3971593Y2114573D1*
X3956380Y2132420D1*
X3939007Y2148173D1*
X3919760Y2161577D1*
X3898960Y2172410D1*
X3876943Y2180493D1*
X3856243Y2185203D1*
X3823537Y2217870D1*
X3805513Y2232653D1*
X3785410Y2244453D1*
X3763720Y2252987D1*
X3740943Y2258043D1*
X3719933Y2259520D1*
X3287990Y2259523D1*
X3291567Y2262773D1*
X3306757Y2280643D1*
X3319533Y2300307D1*
X3322027Y2305487D1*
X3724560D1*
X3725403Y2304813D1*
X3745467Y2292673D1*
X3766917Y2283193D1*
X3789407Y2276540D1*
X3812560Y2272813D1*
X3836000Y2272080D1*
X3859343Y2274347D1*
X3882203Y2279583D1*
X3904207Y2287700D1*
X3924990Y2298563D1*
X3944217Y2311993D1*
X3961567Y2327773D1*
X3976757Y2345643D1*
X3983880Y2356607D1*
X4047633Y2292827D1*
X4226980Y2113497D1*
Y1750067D1*
X4227530Y1733987D1*
X4230300Y1710803D1*
X4231783Y1703020D1*
X3699817D1*
X3676537Y1701693D1*
X3653547Y1697767D1*
X3631143Y1691293D1*
X3609603Y1682353D1*
X3589200Y1671057D1*
X3570190Y1657547D1*
X3552810Y1641997D1*
X3537283Y1624597D1*
X3523800Y1605570D1*
X3512530Y1585150D1*
X3503617Y1563600D1*
X3497173Y1541187D1*
X3493277Y1518193D1*
X3491980Y1494910D1*
X3493297Y1471627D1*
X3497213Y1448637D1*
X3503677Y1426227D1*
X3512610Y1404683D1*
X3523897Y1384277D1*
X3537397Y1365260D1*
X3552940Y1347877D1*
X3570333Y1332340D1*
X3589353Y1318847D1*
X3609767Y1307570D1*
X3631313Y1298647D1*
X3653723Y1292193D1*
X3676717Y1288287D1*
X3700000Y1286980D1*
X5182863D1*
X5206147Y1288297D1*
X5229137Y1292213D1*
X5251543Y1298677D1*
X5273087Y1307610D1*
X5293493Y1318897D1*
X5312510Y1332397D1*
X5329897Y1347940D1*
X5345433Y1365333D1*
X5358923Y1384353D1*
X5370203Y1404767D1*
X5379127Y1426313D1*
X5385580Y1448723D1*
X5389483Y1471717D1*
X5390793Y1495000D1*
Y1512747D1*
X5394263Y1514700D1*
X5631420Y1514680D1*
X5634713Y1504183D1*
X5643510Y1482577D1*
X5654057Y1461770D1*
X5666277Y1441903D1*
X5680097Y1423110D1*
X5695413Y1405517D1*
X5712127Y1389247D1*
X5730127Y1374407D1*
X5749287Y1361100D1*
X5769473Y1349413D1*
X5790557Y1339433D1*
X5812390Y1331220D1*
X5834827Y1324837D1*
X5857713Y1320320D1*
X5880893Y1317703D1*
X5904207Y1317003D1*
X5927503Y1318227D1*
X5950617Y1321367D1*
X5973397Y1326397D1*
X5995680Y1333287D1*
X6017323Y1341987D1*
X6038177Y1352443D1*
X6058100Y1364577D1*
X6076953Y1378313D1*
X6094613Y1393553D1*
X6110957Y1410197D1*
X6125873Y1428130D1*
X6139263Y1447230D1*
X6151037Y1467370D1*
X6161110Y1488410D1*
X6169417Y1510207D1*
X6175900Y1532613D1*
X6180517Y1555480D1*
X6183233Y1578647D1*
X6184033Y1601960D1*
X6183020Y1748697D1*
X6183010Y2002467D1*
X6181847Y2025767D1*
X6178767Y2048887D1*
X6173793Y2071680D1*
X6166960Y2093983D1*
X6158313Y2115647D1*
X6147913Y2136527D1*
X6135827Y2156480D1*
X6122140Y2175367D1*
X6106943Y2193067D1*
X6090343Y2209453D1*
X6072447Y2224417D1*
X6053380Y2237853D1*
X6032563Y2250073D1*
X6035443Y2251493D1*
X6055450Y2263493D1*
X6074397Y2277097D1*
X6092163Y2292217D1*
X6108620Y2308747D1*
X6123660Y2326577D1*
X6137183Y2345583D1*
X6149093Y2365640D1*
X6159313Y2386610D1*
X6167770Y2408350D1*
X6174407Y2430710D1*
X6179183Y2453543D1*
X6182060Y2476693D1*
X6183020Y2500000D1*
X6183010Y2902467D1*
X6181847Y2925767D1*
X6178767Y2948887D1*
X6173793Y2971680D1*
X6166960Y2993983D1*
X6158313Y3015647D1*
X6147913Y3036527D1*
X6135827Y3056480D1*
X6133020Y3060650D1*
X6133017Y3120423D1*
X6140017Y3103800D1*
X6151117Y3083393D1*
X6164197Y3064197D1*
X6179120Y3046393D1*
X6195743Y3030167D1*
X6213900Y3015677D1*
X6233410Y3003067D1*
X6254077Y2992460D1*
X6275697Y2983963D1*
X6298057Y2977663D1*
X6320933Y2973620D1*
X6344097Y2971873D1*
X6367320Y2972443D1*
X6390370Y2975323D1*
X6413020Y2980483D1*
X6435043Y2987873D1*
X6456223Y2997420D1*
X6476347Y3009027D1*
X6495213Y3022580D1*
X6512637Y3037943D1*
X6528703Y3055310D1*
X6710467Y3055300D1*
X6710480Y2692863D1*
Y2472950D1*
X6691823Y2481513D1*
X6669420Y2487943D1*
X6646250Y2490700D1*
X6640680Y2490807D1*
X6364850Y2490793D1*
X6346987Y2489703D1*
X6324157Y2484997D1*
X6302377Y2476697D1*
X6282210Y2465017D1*
X6264173Y2450253D1*
X6248733Y2432790D1*
X6236290Y2413080D1*
X6227167Y2391633D1*
X6221597Y2369000D1*
X6219727Y2345767D1*
X6219733Y2129767D1*
X6220253Y2117520D1*
X6224083Y2094530D1*
X6231547Y2072447D1*
X6242450Y2051847D1*
X6256513Y2033260D1*
X6273373Y2017167D1*
X6292593Y2003980D1*
X6313680Y1994047D1*
X6336083Y1987617D1*
X6359250Y1984860D1*
X6364820Y1984753D1*
X6640760Y1984767D1*
X6653007Y1985283D1*
X6665433Y1986883D1*
X6633733Y1955180D1*
X6618677Y1937387D1*
X6606570Y1917467D1*
X6597703Y1895910D1*
X6592297Y1873237D1*
X6590480Y1849997D1*
Y1549233D1*
X6592417Y1526003D1*
X6597940Y1503360D1*
X6606917Y1481847D1*
X6619127Y1461990D1*
X6634273Y1444273D1*
X6671443Y1407103D1*
X6682807Y1389983D1*
X6665797Y1374040D1*
X6651110Y1355930D1*
X6639027Y1335990D1*
X6629770Y1314590D1*
X6623510Y1292130D1*
X6620363Y1269007D1*
X6619980Y1257493D1*
X6620007Y1154127D1*
X6614320Y1158730D1*
X6594740Y1171443D1*
X6573940Y1182040D1*
X6552147Y1190403D1*
X6529597Y1196443D1*
X6506540Y1200093D1*
X6483230Y1201310D1*
X6459917Y1200087D1*
X6436860Y1196433D1*
X6414313Y1190390D1*
X6392520Y1182023D1*
X6371720Y1171423D1*
X6352143Y1158707D1*
X6334003Y1144013D1*
X6317500Y1127507D1*
X6302810Y1109363D1*
X6290100Y1089783D1*
X6279503Y1068983D1*
X6271140Y1047187D1*
X6265100Y1024640D1*
X6261450Y1001583D1*
X6260230Y978270D1*
X6261453Y954960D1*
X6265107Y931903D1*
X6271153Y909353D1*
X6279520Y887563D1*
X6290120Y866763D1*
X6300377Y850620D1*
X6290067Y834727D1*
X6279477Y813923D1*
X6271120Y792127D1*
X6265087Y769577D1*
X6261443Y746520D1*
X6260230Y723207D1*
X6261460Y699897D1*
X6265120Y676840D1*
X6271173Y654293D1*
X6279547Y632503D1*
X6290150Y611707D1*
X6302873Y592133D1*
X6303917Y590727D1*
X6302810Y589363D1*
X6290100Y569783D1*
X6279503Y548983D1*
X6271140Y527187D1*
X6265100Y504640D1*
X6261450Y481583D1*
X6260230Y458270D1*
X6261453Y434960D1*
X6265107Y411903D1*
X6271153Y389353D1*
X6279520Y367563D1*
X6290120Y346763D1*
X6297063Y335510D1*
X6290100Y324783D1*
X6279503Y303983D1*
X6271140Y282187D1*
X6265100Y259640D1*
X6261450Y236583D1*
X6260230Y213270D1*
X6261453Y189960D1*
X6265107Y166903D1*
X6271153Y144353D1*
X6279520Y122563D1*
X6290120Y101763D1*
X6302837Y82187D1*
X6317527Y64047D1*
X6319833Y61740D1*
X4906760Y61753D1*
X4909000Y63993D1*
X4923690Y82137D1*
X4936400Y101717D1*
X4946997Y122517D1*
X4955360Y144313D1*
X4961400Y166860D1*
X4965050Y189917D1*
X4966270Y213230D1*
X4965047Y236540D1*
X4961393Y259597D1*
X4955347Y282147D1*
X4946980Y303937D1*
X4936380Y324737D1*
X4929437Y335990D1*
X4936400Y346717D1*
X4946997Y367517D1*
X4955360Y389313D1*
X4961400Y411860D1*
X4965050Y434917D1*
X4966270Y458230D1*
X4965047Y481540D1*
X4961393Y504597D1*
X4955347Y527147D1*
X4946980Y548937D1*
X4936380Y569737D1*
X4923663Y589313D1*
X4922583Y590773D1*
X4923690Y592137D1*
X4936400Y611717D1*
X4946997Y632517D1*
X4955360Y654313D1*
X4961400Y676860D1*
X4965050Y699917D1*
X4966270Y723230D1*
X4965047Y746540D1*
X4961393Y769597D1*
X4955347Y792147D1*
X4946980Y813937D1*
X4936380Y834737D1*
X4926110Y850867D1*
X4936400Y866717D1*
X4946997Y887517D1*
X4955360Y909313D1*
X4961400Y931860D1*
X4965050Y954917D1*
X4966270Y978230D1*
X4965047Y1001540D1*
X4961393Y1024597D1*
X4955347Y1047147D1*
X4946980Y1068937D1*
X4936380Y1089737D1*
X4923663Y1109313D1*
X4908973Y1127453D1*
X4892463Y1143960D1*
X4874320Y1158647D1*
X4854740Y1171360D1*
X4833940Y1181957D1*
X4812147Y1190320D1*
X4789597Y1196360D1*
X4766540Y1200010D1*
X4743230Y1201230D1*
X4719917Y1200003D1*
X4696860Y1196350D1*
X4674313Y1190307D1*
X4652520Y1181940D1*
X4631720Y1171340D1*
X4612143Y1158623D1*
X4594003Y1143930D1*
X4577500Y1127423D1*
X4562810Y1109280D1*
X4550100Y1089700D1*
X4539503Y1068900D1*
X4531140Y1047107D1*
X4525100Y1024557D1*
X4521450Y1001500D1*
X4520230Y978187D1*
X4521453Y954877D1*
X4525107Y931820D1*
X4531153Y909270D1*
X4539520Y887480D1*
X4550120Y866680D1*
X4560390Y850550D1*
X4550100Y834700D1*
X4539503Y813900D1*
X4531140Y792107D1*
X4525100Y769557D1*
X4521450Y746500D1*
X4520230Y723187D1*
X4521453Y699877D1*
X4525107Y676820D1*
X4531153Y654270D1*
X4539520Y632480D1*
X4550120Y611680D1*
X4562837Y592103D1*
X4563917Y590643D1*
X4562810Y589280D1*
X4550100Y569700D1*
X4539503Y548900D1*
X4531140Y527107D1*
X4525100Y504557D1*
X4521450Y481500D1*
X4520230Y458187D1*
X4521453Y434877D1*
X4525107Y411820D1*
X4531153Y389270D1*
X4539520Y367480D1*
X4550120Y346680D1*
X4557063Y335427D1*
X4550100Y324700D1*
X4539503Y303900D1*
X4531140Y282107D1*
X4525100Y259557D1*
X4521450Y236500D1*
X4520230Y213187D1*
X4521453Y189877D1*
X4525107Y166820D1*
X4531153Y144270D1*
X4539520Y122480D1*
X4550120Y101680D1*
X4562837Y82103D1*
X4577527Y63963D1*
X4579737Y61753D1*
X4503357Y61750D1*
X4500047Y66533D1*
X4506287Y88987D1*
X4508510Y112207D1*
X4508523Y313237D1*
X4506833Y334373D1*
X4506287Y343987D1*
X4508510Y367207D1*
X4508523Y568237D1*
X4506833Y589373D1*
X4506287Y598987D1*
X4508510Y622207D1*
X4508523Y823237D1*
X4506833Y844373D1*
X4506287Y853987D1*
X4508510Y877207D1*
X4508523Y1078237D1*
X4506833Y1099373D1*
X4501130Y1121970D1*
X4491573Y1143223D1*
X4478450Y1162480D1*
X4462170Y1179153D1*
X4443230Y1192730D1*
X4422210Y1202790D1*
X4399760Y1209030D1*
X4376540Y1211253D1*
X4175647Y1211270D1*
X4153353Y1209410D1*
X1172940Y2704010D2*
D15*
X747083Y2703990D1*
X960003Y2916930D2*
X960023Y2491070D1*
X7130007Y1974063D2*
X7129993Y2399920D1*
X7342930Y2187000D2*
X7130000Y2186993D1*
X6836000Y382500D2*
X7060073D1*
X6836000Y161527D2*
Y382500D1*
X2802997Y140000D2*
X2802983Y372930D1*
X3035927Y140013D2*
X2802997Y140000D1*
X1257070Y2500000D2*
X1722930D1*
X1490000Y2267070D2*
Y2732930D1*
X6910000Y1699000D2*
X7142930D1*
D25*
X959988Y3204000D3*
D26*
X960012Y2704000D3*
D25*
X7630000Y2187007D3*
D26*
X7130000Y2186993D3*
D25*
X1360000Y948237D3*
D26*
X1860000Y948263D3*
D45*
X6836000Y617500D3*
D46*
Y382500D3*
D30*
X1298000Y159974D3*
D31*
X1552000Y159987D3*
X1806000Y160000D3*
X2060000Y160013D3*
D30*
X2548997Y159987D3*
D31*
X2802997Y160000D3*
D32*
X100013Y1969990D3*
X100021Y1769990D3*
X100030Y1569990D3*
X100004Y2169990D3*
X99995Y2369990D3*
X99969Y2969990D3*
X99977Y2769990D3*
X99986Y2569990D3*
X99960Y3169990D3*
X99951Y3369990D3*
X100039Y1369990D3*
X100048Y1169990D3*
X300017Y1869999D3*
X300026Y1669999D3*
X300035Y1469999D3*
X300008Y2069999D3*
X299999Y2269999D3*
X299973Y2869999D3*
X299982Y2669999D3*
X299991Y2469999D3*
X299964Y3069999D3*
X299955Y3269999D3*
X300044Y1269999D3*
X300052Y1069999D3*
D31*
X2150000Y3320000D3*
X1490000Y2500000D3*
D30*
X7740003Y1342250D3*
D31*
X7739997Y1088250D3*
X6350000Y3204820D3*
X6910000Y1699000D3*
D37*
X4810000Y3046012D3*
X4310010Y2795992D3*
X4309990Y3295992D3*
X6483250Y213292D3*
X4743250Y213208D3*
X6483250Y458292D3*
X4743250Y458208D3*
X6483250Y723292D3*
X4743250Y723208D3*
X6483250Y978292D3*
X4743250Y978208D3*
D46*
X6844000Y972500D3*
D45*
Y1207500D3*
D57*
X6502750Y2237780D3*
X5190229Y2727722D3*
X5182772Y1747721D3*
D30*
X930001Y607993D3*
D31*
X929987Y861993D3*
X929973Y1115993D3*
X929959Y1369993D3*
X929945Y1623993D3*
D61*
X4275500Y978245D3*
D31*
X4021500Y978255D3*
D61*
X4275500Y723245D3*
D31*
X4021500Y723255D3*
D61*
X4275500Y468245D3*
D31*
X4021500Y468255D3*
D61*
X4275500Y213245D3*
D31*
X4021500Y213255D3*
M02*
